<svg xmlns="http://www.w3.org/2000/svg" width="2100" height="758" viewBox="0 0 2100 758" version="1.1">
	<path d="M 0 379 L 0 758.001 1050.250 757.750 L 2100.500 757.500 2100.751 378.750 L 2101.003 0 1050.501 0 L 0 0 0 379 M 0.495 379.500 C 0.495 587.950, 0.610 673.374, 0.750 569.331 C 0.890 465.289, 0.890 294.739, 0.750 190.331 C 0.610 85.924, 0.495 171.050, 0.495 379.500 M 414 155.531 C 413.175 155.695, 407.959 156.359, 402.410 157.007 C 396.860 157.655, 391.845 158.481, 391.265 158.842 C 389.762 159.780, 381.655 185.904, 377.561 203 C 371.448 228.532, 368.386 247.377, 365.482 277.356 L 364.818 284.211 358.345 275.356 C 344.003 255.736, 325.450 224.328, 315.884 203.475 C 313.494 198.264, 311.167 194, 310.714 194 C 309.511 194, 298.002 201.947, 297.988 202.787 C 297.981 203.179, 297.315 210.250, 296.508 218.500 C 289.950 285.548, 306.387 370.275, 339.072 437.899 C 357.311 475.634, 382.933 514.192, 408.150 541.853 C 413.842 548.097, 419.781 554.734, 421.347 556.603 L 424.194 560 419.273 560 C 405.010 560, 378.468 552.559, 362.220 544.005 C 356.991 541.252, 352.449 539, 352.126 539 C 351.804 539, 354.906 541.483, 359.020 544.517 C 366.680 550.167, 384.930 560, 387.757 560 C 388.624 560, 389.083 560.250, 388.778 560.555 C 387.150 562.183, 350.246 551.104, 334.500 544.259 C 316.728 536.534, 294.358 522.271, 280.823 510.036 C 277.151 506.716, 273.787 504, 273.347 504 C 272.907 504, 276.136 507.630, 280.523 512.067 C 311.631 543.527, 347.909 563.541, 390.267 572.611 C 401.054 574.921, 405.467 575.289, 427.601 575.724 C 455.696 576.275, 465.249 575.317, 486 569.864 C 516.737 561.788, 547.172 545.981, 569 526.758 C 581.346 515.885, 583.832 512.733, 574.885 519.294 C 557.487 532.054, 534.809 544.031, 513.172 551.887 C 501.509 556.122, 496.296 557.284, 503.669 554.005 C 513.614 549.582, 533.131 534.197, 542.365 523.502 C 551.973 512.373, 565.198 491.864, 563.719 490.386 C 563.493 490.160, 561.360 492.793, 558.979 496.237 C 552.307 505.891, 531.871 525.621, 521.038 532.867 C 498.661 547.835, 471.941 557.593, 447.734 559.640 L 440.236 560.274 434.138 551.205 C 405.408 508.478, 387.450 464.649, 375.468 408.013 C 373.546 398.931, 371.739 390.459, 371.452 389.186 C 371.062 387.456, 373.530 389.207, 381.215 396.110 C 396.433 409.778, 411.895 421.665, 427 431.308 L 429.500 432.904 429.141 410.702 C 428.102 346.366, 441.830 282.275, 470.399 218.081 C 475.165 207.371, 488.456 182.221, 495.067 171.400 L 498.795 165.300 493.647 163.715 C 485.781 161.292, 469.800 158.173, 456.699 156.503 C 446.645 155.223, 418.740 154.587, 414 155.531 M 1252 292.560 C 1236.047 295.999, 1222.765 306.351, 1217.919 319.125 C 1215.940 324.341, 1215.517 327.227, 1215.591 335 C 1215.718 348.299, 1218.166 354.364, 1226.909 363.044 C 1234.773 370.852, 1242.061 374.639, 1263.344 381.976 C 1284.119 389.138, 1288 391.859, 1288 399.260 C 1288 403.020, 1285.345 406.168, 1280.685 407.933 C 1276.973 409.340, 1265.187 409.297, 1260.899 407.862 C 1253.312 405.321, 1248 399.009, 1248 392.532 C 1248 390.715, 1247.466 390, 1246.107 390 C 1243.676 390, 1211.873 396.793, 1211.213 397.454 C 1210.321 398.345, 1212.956 409.277, 1215.159 413.827 C 1220.104 424.043, 1233.769 433.680, 1249 437.692 C 1258.254 440.130, 1282.080 440.102, 1290.920 437.643 C 1310.267 432.262, 1321.975 420.290, 1325.027 402.768 C 1327.370 389.310, 1322.544 374.170, 1313.323 366.053 C 1306.875 360.378, 1297.219 355.718, 1280.172 350.057 C 1262.539 344.201, 1258.004 342.092, 1255.095 338.393 C 1252.315 334.860, 1252.288 328.712, 1255.040 325.960 C 1260.961 320.039, 1277.233 319.779, 1283.414 325.508 C 1284.798 326.791, 1286.450 329.901, 1287.084 332.420 C 1287.718 334.939, 1288.593 337, 1289.028 337 C 1289.463 337, 1297.294 335.425, 1306.430 333.500 C 1315.566 331.575, 1323.319 330, 1323.658 330 C 1325.294 330, 1322.648 318.119, 1319.839 312.849 C 1314.652 303.117, 1303.041 295.598, 1288.412 292.499 C 1279.748 290.664, 1260.650 290.695, 1252 292.560 M 667 365.501 L 667 437.131 704.250 436.784 L 741.500 436.437 749.500 433.744 C 767.194 427.788, 779.611 416.977, 787.384 400.760 C 794.010 386.936, 795.448 380.179, 795.424 363 C 795.401 346.083, 794.071 339.746, 787.905 327.167 C 780.705 312.476, 768.195 302.380, 750.183 296.721 C 743.987 294.775, 740.711 294.594, 705.250 294.247 L 667 293.872 667 365.501 M 855.149 296.750 C 853.165 301.740, 803 436.340, 803 436.674 C 803 436.853, 810.832 437, 820.405 437 L 837.810 437 842.041 425 L 846.272 413 872.043 413 L 897.814 413 902.582 425 L 907.350 437 925.675 437 C 935.754 437, 944.008 436.663, 944.018 436.250 C 944.028 435.837, 930.904 403.663, 914.855 364.750 L 885.673 294 870.958 294 L 856.243 294 855.149 296.750 M 944 309.500 L 944 325 965 325 L 986 325 986 381 L 986 437 1004.500 437 L 1023 437 1023 381 L 1023 325 1044.500 325 L 1066 325 1066 309.500 L 1066 294 1005 294 L 944 294 944 309.500 M 1094.720 363.260 C 1080.541 401.348, 1068.677 433.521, 1068.354 434.755 L 1067.767 437 1085.133 436.993 L 1102.500 436.986 1106.565 425.243 L 1110.629 413.500 1136.481 413.500 L 1162.332 413.500 1167.085 425 L 1171.837 436.500 1190.419 436.772 C 1200.638 436.922, 1209 436.898, 1209 436.719 C 1209 436.540, 1195.815 404.468, 1179.701 365.447 L 1150.401 294.500 1135.451 294.254 L 1120.500 294.009 1094.720 363.260 M 1347 365.500 L 1347 437 1365.500 437 L 1384 437 1384 409 L 1384 381 1413 381 L 1442 381 1442 409 L 1442 437 1460.500 437 L 1479 437 1479 365.500 L 1479 294 1460.500 294 L 1442 294 1442 321.500 L 1442 349 1413 349 L 1384 349 1384 321.500 L 1384 294 1365.500 294 L 1347 294 1347 365.500 M 1507 365.500 L 1507 437 1525.500 437 L 1544 437 1544 365.500 L 1544 294 1525.500 294 L 1507 294 1507 365.500 M 1573 365.500 L 1573 437 1591.500 437 L 1610 437 1610 409.018 L 1610 381.036 1633.750 380.768 L 1657.500 380.500 1657.775 364.750 L 1658.051 349 1634.025 349 L 1610 349 1610 337 L 1610 325 1638.500 325 L 1667 325 1667 309.500 L 1667 294 1620 294 L 1573 294 1573 365.500 M 1674 309.500 L 1674 325 1695.500 325 L 1717 325 1717 381 L 1717 437 1735.500 437 L 1754 437 1754 381 L 1754 325 1775 325 L 1796 325 1796 309.500 L 1796 294 1735 294 L 1674 294 1674 309.500 M 704 365.500 L 704 406.176 719.750 405.838 C 735.205 405.506, 735.603 405.442, 741 402.416 C 747.431 398.810, 752.157 392.526, 754.759 384.124 C 757.184 376.292, 757.198 352.826, 754.782 345 C 752.309 336.987, 747.931 331.605, 741.199 328.299 C 735.816 325.655, 734.626 325.481, 719.750 325.162 L 704 324.824 704 365.500 M 864.464 361.688 C 861.184 371.417, 858.355 379.967, 858.177 380.688 C 857.922 381.722, 860.749 382, 871.534 382 C 882.076 382, 885.100 381.713, 884.717 380.750 C 884.444 380.063, 881.982 373.875, 879.246 367 C 876.510 360.125, 873.499 352.137, 872.555 349.250 C 871.611 346.363, 870.747 344, 870.634 344 C 870.521 344, 867.745 351.960, 864.464 361.688 M 1128.894 361.771 C 1125.811 370.972, 1122.950 379.288, 1122.537 380.250 C 1121.843 381.868, 1122.815 382, 1135.393 382 C 1142.877 382, 1149 381.646, 1149 381.214 C 1149 380.782, 1146.573 374.370, 1143.606 366.964 C 1140.639 359.559, 1137.643 351.587, 1136.948 349.250 C 1136.252 346.913, 1135.417 345.009, 1135.092 345.021 C 1134.766 345.033, 1131.977 352.570, 1128.894 361.771" stroke="none" fill="#000000" fill-rule="evenodd"/>
</svg>